<svg xmlns="http://www.w3.org/2000/svg" width="32" height="32" fill="none" viewBox="2 2 28 28"><g filter="url(#filter0_f_1126_719)" opacity=".2"><path fill="#FFF69B" d="M23.3473 15.7639V16.0137C23.3473 18.5844 21.9548 20.9848 19.7422 22.2935C17.5588 23.5849 14.819 23.6396 12.6037 22.4037C10.3463 21.1443 8.94732 18.7619 8.9473 16.177L8.9473 16.0061C8.94728 13.4022 10.3332 10.995 12.5851 9.68753L12.6887 9.62738C14.8541 8.37021 17.5217 8.34729 19.7083 9.56707C21.9549 10.8203 23.3473 13.1914 23.3473 15.7639Z"/></g><path fill="#FFF69B" d="M16.375 8.09375L22.2476 15.6173L16.375 17.3055V8.09375Z"/><path fill="#D39902" d="M16.375 23.6064L10.5024 15.6175L16.375 17.3058L16.375 23.6064Z"/><path fill="#FED501" d="M16.3746 8.09444V17.306L10.502 15.6178L16.3746 8.09444Z"/><path fill="#FED501" d="M16.3735 23.6058L16.3735 17.3053L22.2461 15.6169L16.3735 23.6058Z"/><defs><filter id="filter0_f_1126_719" width="30.4" height="30.629" x=".947" y=".668" color-interpolation-filters="sRGB" filterUnits="userSpaceOnUse"><feFlood flood-opacity="0" result="BackgroundImageFix"/><feBlend in="SourceGraphic" in2="BackgroundImageFix" mode="normal" result="shape"/><feGaussianBlur result="effect1_foregroundBlur_1126_719" stdDeviation="4"/></filter></defs></svg>