<svg xmlns="http://www.w3.org/2000/svg" width="292" height="103" fill="none" viewBox="0 0 292 103"><g clip-path="url(#clip0_1642_5307)"><rect width="292" height="102.768" fill="#1D1D26"/><g filter="url(#filter0_f_1642_5307)" opacity=".2"><path fill="#5CF9D3" d="M165.65 53.6341L173.183 50.3033C174.847 49.5675 176.067 48.0906 176.476 46.3175L179.648 32.5626C180.048 30.8276 179.626 29.005 178.503 27.6227L173.097 20.9634C171.454 18.9397 168.659 18.2669 166.275 19.3209L158.839 22.6086C157.175 23.3445 155.954 24.8214 155.545 26.5946L152.367 40.3807C151.971 42.0979 152.38 43.9019 153.478 45.28L158.796 51.9512C160.433 54.0048 163.248 54.6961 165.65 53.6341Z"/></g><path fill="url(#paint0_linear_1642_5307)" d="M154.55 72.8272C152.651 72.3983 150.134 73.0059 149.113 73.3632C143.14 75.9668 147.428 79.4129 148.194 79.566C148.96 79.7192 151.104 77.8813 151.793 78.1876C152.482 78.4939 152.329 82.0165 152.635 83.0886C152.942 84.1607 154.55 84.0075 155.775 83.8543C157 83.7012 157.919 82.3994 157.996 80.5615C158.072 78.7237 156.924 73.3632 154.55 72.8272Z"/><path fill="url(#paint1_linear_1642_5307)" d="M118.219 57.4353C121.204 46.0447 128.021 43.0082 134.3 44.264C142.341 45.8721 142.366 54.1612 141.575 58.9669C140.579 65.0165 142.304 66.321 147.395 69.6877C152.143 72.8274 152.372 82.7825 143.489 86.1519C132.951 90.1492 123.732 81.7104 121.741 78.5707L121.699 78.5044C119.689 75.3345 115.329 68.4615 118.219 57.4353Z"/><path fill="url(#paint2_linear_1642_5307)" d="M114.467 82.0811C115.862 79.7655 119.112 75.3078 120.15 73.7159C122.085 71.8223 126.206 73.7159 124.632 77.8985C123.058 82.0811 120.78 85.1085 119.386 85.5666C118.785 85.7643 116.938 85.7216 115.976 85.4892C115.014 85.2568 113.122 84.3139 114.467 82.0811Z"/><path fill="url(#paint3_linear_1642_5307)" d="M149.405 79.2483C147.661 78.3829 145.072 78.3785 143.996 78.4845C137.577 79.603 140.929 83.9647 141.637 84.2945C142.345 84.6243 144.863 83.3451 145.46 83.8056C146.057 84.2661 145.076 87.6527 145.12 88.7668C145.165 89.8809 146.764 90.1121 147.99 90.2528C149.217 90.3934 150.418 89.3456 150.926 87.5779C151.435 85.8102 151.585 80.3301 149.405 79.2483Z"/><path fill="#DB422A" d="M124.838 77.499C124.777 78.1116 123.842 79.7963 123.383 80.5621C123.505 80.6846 124.404 81.5321 124.838 81.9405C125.389 79.9189 125.068 78.1372 124.838 77.499Z"/><path fill="#DB422A" d="M145.592 83.0889C145.775 83.7015 145.668 84.3907 145.592 85.1565C145.285 84.5438 142.605 84.4673 142.299 84.3141C142.988 84.0844 145.439 83.3186 145.592 83.0889Z"/><path fill="#FEF9F5" d="M134.638 61.6526C137.154 61.5496 139.492 59.7433 140.346 58.8531C140.159 57.3097 139.434 53.8069 138.036 52.1424C136.287 50.0616 132.866 50.6099 130.851 52.5246C129.239 54.0564 127.682 56.6013 126.865 57.6823C128.045 58.91 131.492 61.7812 134.638 61.6526Z"/><mask id="mask0_1642_5307" style="mask-type:alpha" width="9" height="10" x="131" y="50" maskUnits="userSpaceOnUse"><path fill="#000" d="M139.411 55.7352C138.88 58.0919 136.806 59.6319 134.778 59.1749C132.75 58.7178 130.928 56.3839 131.46 54.0272C131.991 51.6704 134.673 50.1832 136.701 50.6403C138.729 51.0973 139.943 53.3784 139.411 55.7352Z"/></mask><g mask="url(#mask0_1642_5307)"><path fill="#000" d="M134.753 61.6584C137.27 61.5555 139.607 59.7492 140.461 58.8589C140.274 57.3156 139.549 53.8128 138.151 52.1482C136.403 50.0675 132.981 50.6158 130.966 52.5305C129.355 54.0622 127.798 56.6072 126.98 57.6882C128.16 58.9158 131.607 61.7871 134.753 61.6584Z"/></g><path fill="#DB422A" d="M148.884 79.0311C145.438 77.959 144.289 77.8824 142.451 77.8824C143.493 77.3311 146.433 77.5761 148.884 79.0311Z"/><path fill="url(#paint4_linear_1642_5307)" d="M180.353 15.6136C180.778 13.0121 178.738 11.3438 178.738 11.3438L176.273 12.2763L176.313 12.0303L178.771 11.0842C181.111 12.9981 180.605 15.5185 180.605 15.5185L180.188 18.1166L179.926 18.2103L180.353 15.6136Z"/><path fill="url(#paint5_linear_1642_5307)" d="M178.736 11.343C178.736 11.343 180.777 13.0117 180.352 15.6128C179.927 18.2146 179.927 18.2146 179.927 18.2146L177.461 19.1468L177.886 16.5457C177.886 16.5457 178.311 13.9445 176.271 12.2756L178.736 11.343Z"/><path fill="url(#paint6_linear_1642_5307)" d="M156.559 54.5393L157.322 54.2507C157.322 54.2507 158.693 56.3706 160.867 57.1508L160.766 57.8488C160.766 57.8488 157.898 56.6848 156.559 54.5393Z"/><path fill="#9C7AF3" d="M182.82 14.6781L177.72 45.8947L155.532 54.2885L155.588 53.9446L160.632 23.0732L182.494 14.8026L182.498 14.8008L182.814 14.6809L182.819 14.6783L182.82 14.6781Z"/><path fill="url(#paint7_linear_1642_5307)" d="M187.437 18.4537L187.987 18.9041L182.887 50.1209L160.7 58.5147L159.562 57.9139C158.376 57.288 157.324 56.4363 156.465 55.4066L155.533 54.2892L177.632 45.8223L182.821 14.6786L183.354 15.1145L183.296 15.4665L183.244 15.7867L178.254 46.3317L156.56 54.5388L156.9 54.9429C157.729 55.9277 158.735 56.7474 159.867 57.3607L160.768 57.8483C160.986 57.7666 182.374 49.7011 182.374 49.7011L187.437 18.4537Z"/><path fill="url(#paint8_linear_1642_5307)" d="M182.819 14.6795L182.819 14.6817L177.63 45.8226L155.532 54.2897L155.588 53.9458L177.367 45.6032L182.498 14.803L182.499 14.802L182.814 14.6821L182.819 14.6795Z"/><path fill="url(#paint9_linear_1642_5307)" d="M186.226 18.3813C186.434 18.4996 186.631 18.6018 186.813 18.6923L181.823 49.2323L181.8 49.2321C181.33 49.0525 180.672 48.7464 179.987 48.2225C179.937 48.1845 179.886 48.1456 179.836 48.1038C179.761 48.0434 179.685 47.9802 179.609 47.9133C179.293 47.6368 179.024 47.3506 178.798 47.0795C178.573 46.8092 178.393 46.5516 178.253 46.3311L183.245 15.7741C183.348 15.909 183.465 16.0529 183.595 16.2052C183.627 16.241 183.658 16.2787 183.693 16.3158C183.896 16.5456 184.13 16.7881 184.393 17.0318C184.426 17.0632 184.459 17.0935 184.493 17.1235C184.606 17.2263 184.724 17.3286 184.848 17.4295C184.897 17.47 184.948 17.5111 184.999 17.5519L185.003 17.5552C185.061 17.6011 185.12 17.6464 185.179 17.6901L185.28 17.7663C185.571 17.9807 185.853 18.163 186.122 18.3207C186.157 18.3418 186.192 18.3623 186.226 18.3813Z"/><path fill="url(#paint10_linear_1642_5307)" d="M179.61 47.913C178.98 47.3594 178.532 46.772 178.254 46.3312L157.323 54.2498C157.632 54.7199 158.129 55.3622 158.879 55.9744C159.625 56.5836 160.349 56.9414 160.87 57.1512L180.053 49.8936L181.547 49.3282L181.801 49.2322C181.245 49.0203 180.427 48.6302 179.61 47.913Z"/><path fill="url(#paint11_linear_1642_5307)" d="M160.768 57.8479C160.986 57.7664 182.374 49.7007 182.374 49.7007L187.437 18.4533L186.794 18.6752L181.787 49.2209L160.868 57.1498L160.768 57.8479Z"/><path fill="url(#paint12_linear_1642_5307)" d="M184.999 17.5523L179.987 48.223C179.937 48.1849 179.886 48.1461 179.836 48.1043L184.847 17.4303C184.897 17.4708 184.947 17.5119 184.999 17.5523Z"/><path fill="#422D97" d="M175.77 29.273L162.654 34.2347L162.722 33.8486L175.838 28.887L175.77 29.273Z"/><path fill="#422D97" d="M176.08 27.2838L162.965 32.2454L163.033 31.8594L176.148 26.8981L176.08 27.2838Z"/><path fill="#422D97" d="M176.422 25.314L163.307 30.2757L163.375 29.8897L176.49 24.9283L176.422 25.314Z"/><path fill="#422D97" d="M176.748 23.3492L163.633 28.3109L163.701 27.9248L176.816 22.9635L176.748 23.3492Z"/><path stroke="#CF0A80" stroke-linecap="round" stroke-width=".647" d="M109.006 74.668C108.51 76.0479 106.191 79.8564 107.185 86.6455L110.221 87.8046"/><path stroke="#CF0A80" stroke-linecap="round" stroke-width=".647" d="M103.322 76.1025C102.881 77.0409 101.059 80.9046 100.673 87.0865L97.6371 87.8593"/><path stroke="#CF0A80" stroke-linecap="round" stroke-width=".647" d="M111.657 72.1836C111.914 73.5451 112.275 77.3168 111.657 81.5117"/><path fill="url(#paint13_linear_1642_5307)" d="M102.273 62.1937C107.461 60.8138 110.056 67.2165 110.111 68.486C113.975 68.486 113.689 71.9221 112.871 73.0673C112.319 73.84 110.939 75.1647 107.848 76.2134C104.757 77.2621 101.39 77.7037 100.452 77.5933C99.5133 77.4829 98.299 77.5933 97.4158 75.4959C96.7093 73.8179 97.931 72.4785 98.5198 72.0185C97.8574 68.9276 97.0847 63.5736 102.273 62.1937Z"/><ellipse cx=".718" cy=".773" fill="#3B314F" rx=".718" ry=".773" transform="matrix(-0.914359 0.404904 0.404904 0.914359 108.326 68.0996)"/><ellipse cx=".718" cy=".773" fill="#3B314F" rx=".718" ry=".773" transform="matrix(-0.914359 0.404904 0.404904 0.914359 103.469 69.5342)"/><path stroke="#CF0A80" stroke-linecap="round" stroke-width=".647" d="M98.6309 72.9014C97.8949 74.7596 96.5665 79.3703 97.1406 82.947"/><g filter="url(#filter1_f_1642_5307)"><ellipse cx="146.351" cy="89.403" fill="#270B31" fill-opacity=".2" rx="70.351" ry="1.403"/></g><path stroke="#CF0A80" stroke-linecap="round" stroke-width=".647" d="M176.258 79.6992C176.32 81.4831 176.742 85.827 177.934 88.9316L174.947 89.4739"/><path stroke="#CF0A80" stroke-linecap="round" stroke-width=".647" d="M171.631 79.8652C171.191 81.6654 170.365 85.8731 170.582 88.3021L166.998 88.9528"/><path stroke="#CF0A80" stroke-linecap="round" stroke-width=".647" d="M168.177 84.4951C167.489 82.6963 166.925 78.2622 170.171 74.9163"/><path fill="url(#paint14_linear_1642_5307)" d="M173.798 65.2234C168.441 65.0739 167.6 72.7999 167.994 74.9722C167.288 75.1004 166.098 76.2701 166.068 77.3414C166.039 78.4127 166.897 79.7419 168.358 80.0672C169.034 80.2174 171.651 80.5913 173.739 80.661C175.828 80.7306 178.37 80.2129 179.782 79.9566C181.194 79.7002 182.493 78.5108 182.252 76.8717C182.058 75.5604 180.71 74.8702 180.06 74.689C180.269 70.2755 179.154 65.3729 173.798 65.2234Z"/><ellipse cx=".718" cy=".773" fill="#3B314F" rx=".718" ry=".773" transform="matrix(-0.992122 -0.125272 -0.125272 0.992122 170.842 73.043)"/><ellipse cx=".718" cy=".773" fill="#3B314F" rx=".718" ry=".773" transform="matrix(-0.992122 -0.125272 -0.125272 0.992122 174.82 73.3301)"/><path stroke="#CF0A80" stroke-linecap="round" stroke-width=".647" d="M179.211 74.3389C179.014 77.0673 179.134 83.0593 181.183 85.2005"/><path stroke="#CF0A80" stroke-linecap="round" stroke-width=".647" d="M135.749 37.6669C137.274 37.696 141.144 36.6191 144.417 32.0786"/><path stroke="#CF0A80" stroke-linecap="round" stroke-width=".647" d="M135.601 42.6581C137.049 42.6713 140.45 44.0753 141.419 46.3573C142.195 48.183 140.439 49.9787 139.465 50.6484L142.251 53.2119"/><path fill="url(#paint15_linear_1642_5307)" d="M130.434 30.0047C135.777 29.4743 137.311 36.2101 137.162 37.472C140.976 38.0914 140.143 41.4372 139.152 42.4364C138.483 43.1107 136.909 44.1971 133.69 44.7368C130.471 45.2764 127.077 45.1726 126.168 44.9132C125.26 44.6538 124.043 44.5682 123.508 42.3563C123.079 40.5868 124.5 39.4605 125.155 39.1009C124.996 35.9437 125.092 30.535 130.434 30.0047Z"/><ellipse cx=".718" cy=".773" fill="#3B314F" rx=".718" ry=".773" transform="matrix(-0.96744 0.253099 0.253099 0.96744 135.463 36.8047)"/><ellipse cx=".718" cy=".773" fill="#3B314F" rx=".718" ry=".773" transform="matrix(-0.96744 0.253099 0.253099 0.96744 130.438 37.4414)"/><path stroke="#CF0A80" stroke-linecap="round" stroke-width=".647" d="M128.587 44.1806C130.018 43.2905 132.338 42.7205 134.042 43.879C135.405 44.8058 134.86 47.8031 134.417 49.1858L137.75 49.306"/><path stroke="#CF0A80" stroke-linecap="round" stroke-width=".647" d="M126.427 39.8697C125.362 41.0449 123.804 44.7127 126.097 49.9822"/></g><defs><filter id="filter0_f_1642_5307" width="75.576" height="83.301" x="128.219" y="-5.173" color-interpolation-filters="sRGB" filterUnits="userSpaceOnUse"><feFlood flood-opacity="0" result="BackgroundImageFix"/><feBlend in="SourceGraphic" in2="BackgroundImageFix" mode="normal" result="shape"/><feGaussianBlur result="effect1_foregroundBlur_1642_5307" stdDeviation="12"/></filter><filter id="filter1_f_1642_5307" width="148.038" height="10.143" x="72.331" y="84.331" color-interpolation-filters="sRGB" filterUnits="userSpaceOnUse"><feFlood flood-opacity="0" result="BackgroundImageFix"/><feBlend in="SourceGraphic" in2="BackgroundImageFix" mode="normal" result="shape"/><feGaussianBlur result="effect1_foregroundBlur_1642_5307" stdDeviation="1.834"/></filter><linearGradient id="paint0_linear_1642_5307" x1="148.424" x2="157.996" y1="77.575" y2="83.012" gradientUnits="userSpaceOnUse"><stop stop-color="#E13023"/><stop offset="1" stop-color="#FA7070"/></linearGradient><linearGradient id="paint1_linear_1642_5307" x1="126.217" x2="146.434" y1="44.801" y2="87.225" gradientUnits="userSpaceOnUse"><stop stop-color="#FF7171"/><stop offset="1" stop-color="#F15141"/></linearGradient><linearGradient id="paint2_linear_1642_5307" x1="121.699" x2="115.113" y1="76.809" y2="85.692" gradientUnits="userSpaceOnUse"><stop stop-color="#F26158"/><stop offset="1" stop-color="#FF7171"/></linearGradient><linearGradient id="paint3_linear_1642_5307" x1="140.384" x2="151.87" y1="84.008" y2="91.742" gradientUnits="userSpaceOnUse"><stop stop-color="#F45649"/><stop offset="1" stop-color="#FF8282"/></linearGradient><linearGradient id="paint4_linear_1642_5307" x1="180.414" x2="177.385" y1="12.428" y2="16.132" gradientUnits="userSpaceOnUse"><stop offset="0" stop-color="#4E5FA8"/><stop offset=".091" stop-color="#5B6BAF"/><stop offset=".319" stop-color="#7883BE"/><stop offset=".547" stop-color="#8C94C9"/><stop offset=".775" stop-color="#989FCF"/><stop offset="1" stop-color="#9CA2D1"/></linearGradient><linearGradient id="paint5_linear_1642_5307" x1="179.585" x2="177.161" y1="18.344" y2="11.939" gradientUnits="userSpaceOnUse"><stop offset="0" stop-color="#95D6DE"/><stop offset=".285" stop-color="#CFEBEB"/><stop offset=".298" stop-color="#D2ECEC"/><stop offset=".519" stop-color="#C3E6E9"/><stop offset=".946" stop-color="#9BD8E1"/><stop offset="1" stop-color="#95D6E0"/></linearGradient><linearGradient id="paint6_linear_1642_5307" x1="161.008" x2="156.383" y1="56.37" y2="55.615" gradientUnits="userSpaceOnUse"><stop offset="0" stop-color="#43499D"/><stop offset=".324" stop-color="#726FB3"/><stop offset=".611" stop-color="#958BC3"/><stop offset=".846" stop-color="#AA9CCD"/><stop offset="1" stop-color="#B2A2D1"/></linearGradient><linearGradient id="paint7_linear_1642_5307" x1="189.582" x2="153.94" y1="34.811" y2="38.383" gradientUnits="userSpaceOnUse"><stop offset="0" stop-color="#33224E"/><stop offset=".199" stop-color="#392453"/><stop offset=".445" stop-color="#2F2A63"/><stop offset=".716" stop-color="#50357C"/><stop offset="1" stop-color="#50439E"/></linearGradient><linearGradient id="paint8_linear_1642_5307" x1="167.346" x2="171.005" y1="16.23" y2="52.739" gradientUnits="userSpaceOnUse"><stop offset="0" stop-color="#43499D"/><stop offset=".597" stop-color="#777DBB"/><stop offset="1" stop-color="#9CA2D1"/></linearGradient><linearGradient id="paint9_linear_1642_5307" x1="184.505" x2="180.564" y1="32.827" y2="32.183" gradientUnits="userSpaceOnUse"><stop offset="0" stop-color="#CFE0EF"/><stop offset=".31" stop-color="#C7D5EA"/><stop offset=".853" stop-color="#B0B8DC"/><stop offset="1" stop-color="#A9AFD8"/></linearGradient><linearGradient id="paint10_linear_1642_5307" x1="170.265" x2="168.86" y1="53.597" y2="49.885" gradientUnits="userSpaceOnUse"><stop stop-color="#FFFDF7"/><stop offset=".351" stop-color="#E8EFF3"/><stop offset=".73" stop-color="#D6E4F0"/><stop offset="1" stop-color="#CFE0EF"/></linearGradient><linearGradient id="paint11_linear_1642_5307" x1="169.246" x2="178.96" y1="25.314" y2="50.992" gradientUnits="userSpaceOnUse"><stop offset="0" stop-color="#43499D"/><stop offset=".319" stop-color="#454B9E"/><stop offset=".494" stop-color="#4D51A2"/><stop offset=".635" stop-color="#5B5CA8"/><stop offset=".757" stop-color="#6F6CB1"/><stop offset=".868" stop-color="#8880BD"/><stop offset=".968" stop-color="#A799CC"/><stop offset="1" stop-color="#B2A2D1"/></linearGradient><linearGradient id="paint12_linear_1642_5307" x1="190.937" x2="173.896" y1="22.409" y2="43.246" gradientUnits="userSpaceOnUse"><stop offset="0" stop-color="#9DA3C9"/><stop offset=".039" stop-color="#9397BB"/><stop offset=".198" stop-color="#9FA5C5"/><stop offset=".729" stop-color="#C2D0E3"/><stop offset="1" stop-color="#CFE0EF"/></linearGradient><linearGradient id="paint13_linear_1642_5307" x1="105.29" x2="105.29" y1="62" y2="77.61" gradientUnits="userSpaceOnUse"><stop stop-color="#F783F2"/><stop offset="1" stop-color="#E040DA"/></linearGradient><linearGradient id="paint14_linear_1642_5307" x1="172.019" x2="174.82" y1="65.434" y2="80.86" gradientUnits="userSpaceOnUse"><stop stop-color="#F783F2"/><stop offset="1" stop-color="#E040DA"/></linearGradient><linearGradient id="paint15_linear_1642_5307" x1="133.444" x2="130.942" y1="30.297" y2="45.705" gradientUnits="userSpaceOnUse"><stop stop-color="#F783F2"/><stop offset="1" stop-color="#E040DA"/></linearGradient><clipPath id="clip0_1642_5307"><rect width="292" height="102.768" fill="#fff"/></clipPath></defs></svg>